# xmcd CD database file
#
# Track frame offsets:
#	182
#	19232
#	39620
#	55957
#	70657
#	88370
#	104670
#	119720
#	130620
#	145395
#	159082
#	176320
#	195432
#
# Disc length: 2935 seconds
#
# Revision: 3
# Processed by: cddbd v1.4PL0 Copyright (c) Steve Scherf et al.
# Submitted via: CDex 1.51
#
DISCID=b50b750d
DTITLE=Claude Nougaro - Chansongs
DYEAR=1993
DGENRE=Chanson
TTITLE0=Vie, violence
TTITLE1=C'est une Garonne
TTITLE2=Ça tourne
TTITLE3=Dali-Gala
TTITLE4=Les points
TTITLE5=Façon Chaplin
TTITLE6=Tchin-Chine
TTITLE7=Art mineur
TTITLE8=L'Irlandaise
TTITLE9=Rock à Renaud
TTITLE10=Prisonnier des nuages
TTITLE11=Rap idyllique
TTITLE12=À coeur perdu
EXTD=YEAR: 1993
EXTT0=
EXTT1=
EXTT2=
EXTT3=
EXTT4=
EXTT5=
EXTT6=
EXTT7=
EXTT8=
EXTT9=
EXTT10=
EXTT11=
EXTT12=
PLAYORDER=
